{
  "source": "C:\\Users\\Peter\\Desktop\\stuff\\MIUN\\quantitative_research\\video_compression\\videos\\UVG\\Beauty_1920x1080_120fps_420_8bit_YUV.y4m",
  "output": "C:\\Users\\Peter\\Desktop\\stuff\\MIUN\\quantitative_research\\video_compression\\compressed_videos\\UVG\\av1\\2\\Beauty_1920x1080_120fps_420_8bit_YUV_av1.mkv",
  "codec": "av1",
  "ok": "[yuv4mpegpipe @ 0000020ecc515300] Stream #0: not enough frames to estimate rate; consider increasing probesize\nInput #0, yuv4mpegpipe, from 'C:\\Users\\Peter\\Desktop\\stuff\\MIUN\\quantitative_research\\video_compression\\videos\\UVG\\Beauty_1920x1080_120fps_420_8bit_YUV.y4m':\n  Duration: 00:00:05.00, start: 0.000000, bitrate: 2985989 kb/s\n  Stream #0:0: Video: rawvideo (I420 / 0x30323449), yuv420p(progressive), 1920x1080, 120 fps, 120 tbr, 120 tbn\n[out#0/matroska @ 0000020ecc519100] Codec AVOption b:a (set bitrate (in bits/s)) has not been used for any stream. The most likely reason is either wrong type (e.g. a video option with no video streams) or that it is a private option of some decoder which was not actually used for any stream.\nStream mapping:\n  Stream #0:0 -> #0:0 (rawvideo (native) -> av1 (libsvtav1))\nPress [q] to stop, [?] for help\nSvt[info]: -------------------------------------------\nSvt[info]: SVT [version]:\tSVT-AV1 Encoder Lib v3.1.0-19-g6ecfe8ec\nSvt[info]: SVT [build]  :\tGCC 15.2.0\t 64 bit\nSvt[info]: LIB Build date: Aug 17 2025 11:37:13\nSvt[info]: -------------------------------------------\n[libsvtav1 @ 0000020ecc51c140] Specified chroma sample location center is unsupported on the AV1 bit stream level. Usage of a container that allows passing this information - such as Matroska - is recommended.\nSvt[info]: Level of Parallelism: 5\nSvt[info]: Number of PPCS 93\nSvt[info]: [asm level on system : up to avx2]\nSvt[info]: [asm level selected : up to avx2]\nSvt[info]: -------------------------------------------\nSvt[info]: SVT [config]: main profile\ttier (auto)\tlevel (auto)\nSvt[info]: SVT [config]: width / height / fps numerator / fps denominator \t\t: 1920 / 1080 / 120 / 1\nSvt[info]: SVT [config]: bit-depth / color format \t\t\t\t\t: 8 / YUV420\nSvt[info]: SVT [config]: preset / tune / pred struct \t\t\t\t\t: 4 / PSNR / random access\nSvt[info]: SVT [config]: gop size / mini-gop size / key-frame type \t\t\t: 641 / 16 / key frame\nSvt[info]: SVT [config]: BRC mode / target bitrate (kbps)\t\t\t\t: VBR / 2000 \nSvt[info]: SVT [config]: AQ mode / Variance Boost \t\t\t\t\t: 2 / 0\nSvt[info]: SVT [config]: sharpness / luminance-based QP bias \t\t\t\t: 0 / 0\nSvt[info]: SVT [config]: QP scale compress strength \t\t\t\t\t: 0\nSvt[info]: -------------------------------------------\nOutput #0, matroska, to 'C:\\Users\\Peter\\Desktop\\stuff\\MIUN\\quantitative_research\\video_compression\\compressed_videos\\UVG\\av1\\2\\Beauty_1920x1080_120fps_420_8bit_YUV_av1.mkv':\n  Metadata:\n    encoder         : Lavf62.3.100\n  Stream #0:0: Video: av1 (AV01 / 0x31305641), yuv420p(tv, progressive), 1920x1080, q=2-31, 2000 kb/s, 120 fps, 1k tbn\n    Metadata:\n      encoder         : Lavc62.11.100 libsvtav1\n    Side data:\n      cpb: bitrate max/min/avg: 0/0/2000000 buffer size: 2000000 vbv_delay: N/A\nframe=    0 fps=0.0 q=0.0 size=       0KiB time=N/A bitrate=N/A speed=N/A elapsed=0:00:00.52    \nframe=    0 fps=0.0 q=0.0 size=       0KiB time=N/A bitrate=N/A speed=N/A elapsed=0:00:01.67    \nframe=    0 fps=0.0 q=0.0 size=       0KiB time=N/A bitrate=N/A speed=N/A elapsed=0:00:02.19    \nframe=    0 fps=0.0 q=0.0 size=       0KiB time=N/A bitrate=N/A speed=N/A elapsed=0:00:02.71    \nframe=    0 fps=0.0 q=0.0 size=       0KiB time=N/A bitrate=N/A speed=N/A elapsed=0:00:03.23    \nframe=    0 fps=0.0 q=0.0 size=       0KiB time=N/A bitrate=N/A speed=N/A elapsed=0:00:03.78    \nframe=    0 fps=0.0 q=0.0 size=       0KiB time=N/A bitrate=N/A speed=N/A elapsed=0:00:04.30    \nframe=    0 fps=0.0 q=0.0 size=       0KiB time=N/A bitrate=N/A speed=N/A elapsed=0:00:04.88    \nframe=    0 fps=0.0 q=0.0 size=       0KiB time=N/A bitrate=N/A speed=N/A elapsed=0:00:05.68    \nframe=    0 fps=0.0 q=0.0 size=       0KiB time=N/A bitrate=N/A speed=N/A elapsed=0:00:06.20    \nframe=    0 fps=0.0 q=0.0 size=       0KiB time=N/A bitrate=N/A speed=N/A elapsed=0:00:06.73    \nframe=    0 fps=0.0 q=0.0 size=       0KiB time=N/A bitrate=N/A speed=N/A elapsed=0:00:07.23    \nframe=    0 fps=0.0 q=0.0 size=       0KiB time=N/A bitrate=N/A speed=N/A elapsed=0:00:07.76    \nframe=    0 fps=0.0 q=0.0 size=       0KiB time=N/A bitrate=N/A speed=N/A elapsed=0:00:08.28    \nframe=    0 fps=0.0 q=0.0 size=       0KiB time=N/A bitrate=N/A speed=N/A elapsed=0:00:08.78    \nframe=    1 fps=0.1 q=35.0 size=       1KiB time=00:00:00.00 bitrate=N/A speed=   0x elapsed=0:00:09.30    \nframe=    1 fps=0.1 q=35.0 size=       1KiB time=00:00:00.00 bitrate=N/A speed=   0x elapsed=0:00:09.82    \nframe=    1 fps=0.1 q=35.0 size=       1KiB time=00:00:00.00 bitrate=N/A speed=   0x elapsed=0:00:10.33    \nframe=    1 fps=0.1 q=35.0 size=       1KiB time=00:00:00.00 bitrate=N/A speed=   0x elapsed=0:00:10.84    \nframe=    1 fps=0.1 q=35.0 size=       1KiB time=00:00:00.00 bitrate=N/A speed=   0x elapsed=0:00:11.37    \nframe=    1 fps=0.1 q=35.0 size=       1KiB time=00:00:00.00 bitrate=N/A speed=   0x elapsed=0:00:11.88    \nframe=    1 fps=0.1 q=35.0 size=       1KiB time=00:00:00.00 bitrate=N/A speed=   0x elapsed=0:00:12.40    \nframe=    3 fps=0.2 q=56.0 size=       1KiB time=00:00:00.01 bitrate= 268.8kbits/s speed=0.00129x elapsed=0:00:12.90    \nframe=    7 fps=0.5 q=55.0 size=       1KiB time=00:00:00.05 bitrate=  89.6kbits/s speed=0.00372x elapsed=0:00:13.43    \nframe=    7 fps=0.5 q=55.0 size=       1KiB time=00:00:00.05 bitrate=  89.6kbits/s speed=0.00359x elapsed=0:00:13.94    \nframe=    8 fps=0.6 q=55.0 size=       1KiB time=00:00:00.05 bitrate=  76.8kbits/s speed=0.00403x elapsed=0:00:14.46    \nframe=    9 fps=0.6 q=51.0 size=       1KiB time=00:00:00.06 bitrate=  67.2kbits/s speed=0.00445x elapsed=0:00:14.98    \nframe=   10 fps=0.6 q=53.0 size=       1KiB time=00:00:00.07 bitrate=  59.7kbits/s speed=0.00484x elapsed=0:00:15.49    \nframe=   12 fps=0.7 q=53.0 size=       1KiB time=00:00:00.09 bitrate=  48.9kbits/s speed=0.00573x elapsed=0:00:16.00    \nframe=   13 fps=0.8 q=54.0 size=       1KiB time=00:00:00.10 bitrate=  44.8kbits/s speed=0.00605x elapsed=0:00:16.51    \nframe=   15 fps=0.9 q=53.0 size=       1KiB time=00:00:00.11 bitrate=  38.4kbits/s speed=0.00685x elapsed=0:00:17.03    \nframe=   16 fps=0.9 q=52.0 size=       1KiB time=00:00:00.12 bitrate=  35.8kbits/s speed=0.00712x elapsed=0:00:17.54    \nframe=   17 fps=0.9 q=40.0 size=       1KiB time=00:00:00.13 bitrate=  33.6kbits/s speed=0.00738x elapsed=0:00:18.06    \nframe=   18 fps=1.0 q=50.0 size=       1KiB time=00:00:00.14 bitrate=  31.6kbits/s speed=0.00762x elapsed=0:00:18.58    \nframe=   18 fps=0.9 q=50.0 size=       1KiB time=00:00:00.14 bitrate=  31.6kbits/s speed=0.00742x elapsed=0:00:19.09    \nframe=   20 fps=1.0 q=50.0 size=       1KiB time=00:00:00.15 bitrate=  28.3kbits/s speed=0.00807x elapsed=0:00:19.62    \nframe=   20 fps=1.0 q=50.0 size=       1KiB time=00:00:00.15 bitrate=  28.3kbits/s speed=0.00786x elapsed=0:00:20.13    \nframe=   21 fps=1.0 q=53.0 size=       1KiB time=00:00:00.16 bitrate=  26.9kbits/s speed=0.00807x elapsed=0:00:20.65    \nframe=   22 fps=1.0 q=48.0 size=       1KiB time=00:00:00.17 bitrate=  25.6kbits/s speed=0.00827x elapsed=0:00:21.16    \nframe=   23 fps=1.1 q=50.0 size=       1KiB time=00:00:00.18 bitrate=  24.4kbits/s speed=0.00846x elapsed=0:00:21.67    \nframe=   23 fps=1.0 q=50.0 size=       1KiB time=00:00:00.18 bitrate=  24.4kbits/s speed=0.00826x elapsed=0:00:22.18    \nframe=   24 fps=1.1 q=48.0 size=       1KiB time=00:00:00.19 bitrate=  23.4kbits/s speed=0.00844x elapsed=0:00:22.70    \nframe=   25 fps=1.1 q=47.0 size=       1KiB time=00:00:00.20 bitrate=  22.4kbits/s speed=0.00861x elapsed=0:00:23.22    \nframe=   26 fps=1.1 q=47.0 size=       1KiB time=00:00:00.20 bitrate=  21.5kbits/s speed=0.00878x elapsed=0:00:23.73    \nframe=   27 fps=1.1 q=50.0 size=       1KiB time=00:00:00.21 bitrate=  20.7kbits/s speed=0.00893x elapsed=0:00:24.26    \nframe=   28 fps=1.1 q=45.0 size=       1KiB time=00:00:00.22 bitrate=  19.9kbits/s speed=0.00908x elapsed=0:00:24.76    \nframe=   29 fps=1.1 q=52.0 size=       1KiB time=00:00:00.23 bitrate=  19.2kbits/s speed=0.00923x elapsed=0:00:25.28    \nframe=   30 fps=1.2 q=47.0 size=       1KiB time=00:00:00.24 bitrate=  18.5kbits/s speed=0.00937x elapsed=0:00:25.80    \nframe=   31 fps=1.2 q=51.0 size=       1KiB time=00:00:00.25 bitrate=  17.9kbits/s speed=0.0095x elapsed=0:00:26.32    \nframe=   33 fps=1.2 q=38.0 size=       1KiB time=00:00:00.26 bitrate=  16.8kbits/s speed=0.00993x elapsed=0:00:26.84    \nframe=   34 fps=1.2 q=46.0 size=       1KiB time=00:00:00.27 bitrate=  16.3kbits/s speed=0.0101x elapsed=0:00:27.35    \nframe=   34 fps=1.2 q=46.0 size=       1KiB time=00:00:00.27 bitrate=  16.3kbits/s speed=0.00987x elapsed=0:00:27.86    \nframe=   35 fps=1.2 q=50.0 size=       1KiB time=00:00:00.28 bitrate=  15.8kbits/s speed=0.00998x elapsed=0:00:28.37    \nframe=   35 fps=1.2 q=50.0 size=       1KiB time=00:00:00.28 bitrate=  15.8kbits/s speed=0.00981x elapsed=0:00:28.89    \nframe=   36 fps=1.2 q=45.0 size=       1KiB time=00:00:00.29 bitrate=  15.4kbits/s speed=0.00992x elapsed=0:00:29.41    \nframe=   37 fps=1.2 q=53.0 size=       1KiB time=00:00:00.30 bitrate=  14.9kbits/s speed=0.01x elapsed=0:00:29.93    \nframe=   37 fps=1.2 q=53.0 size=       1KiB time=00:00:00.30 bitrate=  14.9kbits/s speed=0.00985x elapsed=0:00:30.44    \nframe=   38 fps=1.2 q=45.0 size=       1KiB time=00:00:00.30 bitrate=  14.5kbits/s speed=0.00996x elapsed=0:00:30.96    \nframe=   39 fps=1.2 q=49.0 size=       1KiB time=00:00:00.31 bitrate=  14.1kbits/s speed=0.0101x elapsed=0:00:31.48    \nframe=   39 fps=1.2 q=49.0 size=       1KiB time=00:00:00.31 bitrate=  14.1kbits/s speed=0.00989x elapsed=0:00:32.01    \nframe=   39 fps=1.2 q=49.0 size=       1KiB time=00:00:00.31 bitrate=  14.1kbits/s speed=0.00973x elapsed=0:00:32.53    \nframe=   41 fps=1.2 q=44.0 size=       1KiB time=00:00:00.33 bitrate=  13.4kbits/s speed=0.0101x elapsed=0:00:33.03    \nframe=   42 fps=1.3 q=44.0 size=       1KiB time=00:00:00.34 bitrate=  13.1kbits/s speed=0.0102x elapsed=0:00:33.56    \nframe=   43 fps=1.3 q=48.0 size=       1KiB time=00:00:00.35 bitrate=  12.8kbits/s speed=0.0103x elapsed=0:00:34.07    \nframe=   44 fps=1.3 q=44.0 size=       1KiB time=00:00:00.35 bitrate=  12.5kbits/s speed=0.0104x elapsed=0:00:34.58    \nframe=   47 fps=1.3 q=49.0 size=       1KiB time=00:00:00.38 bitrate=  11.7kbits/s speed=0.0109x elapsed=0:00:35.10    \nframe=   49 fps=1.4 q=36.0 size=       1KiB time=00:00:00.40 bitrate=  11.2kbits/s speed=0.0112x elapsed=0:00:35.62    \nframe=   49 fps=1.4 q=36.0 size=       1KiB time=00:00:00.40 bitrate=  11.2kbits/s speed=0.0111x elapsed=0:00:36.12    \nframe=   50 fps=1.4 q=47.0 size=       1KiB time=00:00:00.40 bitrate=  11.0kbits/s speed=0.0111x elapsed=0:00:36.65    \nframe=   51 fps=1.4 q=50.0 size=       1KiB time=00:00:00.41 bitrate=  10.8kbits/s speed=0.0112x elapsed=0:00:37.15    \nframe=   51 fps=1.4 q=50.0 size=       1KiB time=00:00:00.41 bitrate=  10.8kbits/s speed=0.0111x elapsed=0:00:37.68    \nframe=   52 fps=1.4 q=46.0 size=       1KiB time=00:00:00.42 bitrate=  10.5kbits/s speed=0.0111x elapsed=0:00:38.19    \nframe=   53 fps=1.4 q=52.0 size=       1KiB time=00:00:00.43 bitrate=  10.3kbits/s speed=0.0112x elapsed=0:00:38.71    \nframe=   54 fps=1.4 q=46.0 size=       1KiB time=00:00:00.44 bitrate=  10.1kbits/s speed=0.0113x elapsed=0:00:39.22    \nframe=   54 fps=1.4 q=46.0 size=       1KiB time=00:00:00.44 bitrate=  10.1kbits/s speed=0.0111x elapsed=0:00:39.74    \nframe=   55 fps=1.4 q=50.0 size=       1KiB time=00:00:00.45 bitrate=  10.0kbits/s speed=0.0112x elapsed=0:00:40.26    \nframe=   55 fps=1.3 q=50.0 size=       1KiB time=00:00:00.45 bitrate=  10.0kbits/s speed=0.011x elapsed=0:00:40.77    \nframe=   56 fps=1.4 q=46.0 size=       1KiB time=00:00:00.45 bitrate=   9.8kbits/s speed=0.0111x elapsed=0:00:41.29    \nframe=   57 fps=1.4 q=41.0 size=       1KiB time=00:00:00.46 bitrate=   9.6kbits/s speed=0.0112x elapsed=0:00:41.80    \nframe=   59 fps=1.4 q=50.0 size=       1KiB time=00:00:00.48 bitrate=   9.3kbits/s speed=0.0114x elapsed=0:00:42.32    \nframe=   60 fps=1.4 q=45.0 size=       1KiB time=00:00:00.49 bitrate=   9.1kbits/s speed=0.0115x elapsed=0:00:42.84    \nframe=   63 fps=1.5 q=49.0 size=       1KiB time=00:00:00.51 bitrate=   8.7kbits/s speed=0.0119x elapsed=0:00:43.34    \nframe=   64 fps=1.5 q=44.0 size=       1KiB time=00:00:00.52 bitrate=   8.5kbits/s speed=0.012x elapsed=0:00:43.87    \nframe=   65 fps=1.5 q=31.0 size=       1KiB time=00:00:00.53 bitrate=   8.4kbits/s speed=0.012x elapsed=0:00:44.39    \nframe=   66 fps=1.5 q=41.0 size=       1KiB time=00:00:00.54 bitrate=   8.3kbits/s speed=0.0121x elapsed=0:00:44.89    \nframe=   66 fps=1.5 q=41.0 size=       1KiB time=00:00:00.54 bitrate=   8.3kbits/s speed=0.0119x elapsed=0:00:45.41    \nframe=   67 fps=1.5 q=47.0 size=       1KiB time=00:00:00.55 bitrate=   8.1kbits/s speed=0.012x elapsed=0:00:45.93    \nframe=   68 fps=1.5 q=41.0 size=       1KiB time=00:00:00.55 bitrate=   8.0kbits/s speed=0.012x elapsed=0:00:46.44    \nframe=   69 fps=1.5 q=50.0 size=       1KiB time=00:00:00.56 bitrate=   7.9kbits/s speed=0.0121x elapsed=0:00:46.96    \nframe=   70 fps=1.5 q=42.0 size=       1KiB time=00:00:00.57 bitrate=   7.8kbits/s speed=0.0121x elapsed=0:00:47.48    \nframe=   70 fps=1.5 q=42.0 size=       1KiB time=00:00:00.57 bitrate=   7.8kbits/s speed=0.012x elapsed=0:00:47.98    \nframe=   70 fps=1.4 q=42.0 size=       1KiB time=00:00:00.57 bitrate=   7.8kbits/s speed=0.0119x elapsed=0:00:48.51    \nframe=   71 fps=1.4 q=46.0 size=       1KiB time=00:00:00.58 bitrate=   7.7kbits/s speed=0.0119x elapsed=0:00:49.03    \nframe=   72 fps=1.5 q=42.0 size=       1KiB time=00:00:00.59 bitrate=   7.6kbits/s speed=0.0119x elapsed=0:00:49.54    \nframe=   73 fps=1.5 q=40.0 size=       1KiB time=00:00:00.60 bitrate=   7.5kbits/s speed=0.012x elapsed=0:00:50.05    \nframe=   75 fps=1.5 q=47.0 size=       1KiB time=00:00:00.61 bitrate=   7.3kbits/s speed=0.0122x elapsed=0:00:50.57    \nframe=   75 fps=1.5 q=47.0 size=       1KiB time=00:00:00.61 bitrate=   7.3kbits/s speed=0.0121x elapsed=0:00:51.08    \nframe=   76 fps=1.5 q=41.0 size=       1KiB time=00:00:00.62 bitrate=   7.2kbits/s speed=0.0121x elapsed=0:00:51.60    \nframe=   78 fps=1.5 q=44.0 size=       1KiB time=00:00:00.64 bitrate=   7.0kbits/s speed=0.0123x elapsed=0:00:52.12    \nframe=   79 fps=1.5 q=48.0 size=       1KiB time=00:00:00.65 bitrate=   6.9kbits/s speed=0.0124x elapsed=0:00:52.62    \nframe=   81 fps=1.5 q=29.0 size=       1KiB time=00:00:00.66 bitrate=   6.7kbits/s speed=0.0125x elapsed=0:00:53.15    \nframe=   82 fps=1.5 q=44.0 size=       1KiB time=00:00:00.67 bitrate=   6.6kbits/s speed=0.0126x elapsed=0:00:53.66    \nframe=   82 fps=1.5 q=44.0 size=       1KiB time=00:00:00.67 bitrate=   6.6kbits/s speed=0.0125x elapsed=0:00:54.18    \nframe=   83 fps=1.5 q=48.0 size=       1KiB time=00:00:00.68 bitrate=   6.6kbits/s speed=0.0125x elapsed=0:00:54.69    \nframe=   84 fps=1.5 q=43.0 size=       1KiB time=00:00:00.69 bitrate=   6.5kbits/s speed=0.0125x elapsed=0:00:55.21    \nframe=   84 fps=1.5 q=43.0 size=       1KiB time=00:00:00.69 bitrate=   6.5kbits/s speed=0.0124x elapsed=0:00:55.72    \nframe=   85 fps=1.5 q=50.0 size=       1KiB time=00:00:00.70 bitrate=   6.4kbits/s speed=0.0124x elapsed=0:00:56.24    \nframe=   86 fps=1.5 q=44.0 size=       1KiB time=00:00:00.70 bitrate=   6.3kbits/s speed=0.0125x elapsed=0:00:56.76    \nframe=   86 fps=1.5 q=44.0 size=       1KiB time=00:00:00.70 bitrate=   6.3kbits/s speed=0.0124x elapsed=0:00:57.29    \nframe=   87 fps=1.5 q=48.0 size=       1KiB time=00:00:00.71 bitrate=   6.3kbits/s speed=0.0124x elapsed=0:00:57.80    \nframe=   87 fps=1.5 q=48.0 size=       1KiB time=00:00:00.71 bitrate=   6.3kbits/s speed=0.0123x elapsed=0:00:58.32    \nframe=   88 fps=1.5 q=45.0 size=       1KiB time=00:00:00.72 bitrate=   6.2kbits/s speed=0.0123x elapsed=0:00:58.84    \nframe=   89 fps=1.5 q=40.0 size=       1KiB time=00:00:00.73 bitrate=   6.1kbits/s speed=0.0124x elapsed=0:00:59.36    \nframe=   91 fps=1.5 q=48.0 size=       1KiB time=00:00:00.75 bitrate=   6.0kbits/s speed=0.0125x elapsed=0:00:59.88    \nframe=   92 fps=1.5 q=44.0 size=       1KiB time=00:00:00.75 bitrate=   5.9kbits/s speed=0.0126x elapsed=0:01:00.39    \nframe=   93 fps=1.5 q=50.0 size=       1KiB time=00:00:00.76 bitrate=   5.8kbits/s speed=0.0126x elapsed=0:01:00.91    \nframe=   95 fps=1.5 q=48.0 size=       1KiB time=00:00:00.78 bitrate=   5.7kbits/s speed=0.0127x elapsed=0:01:01.45    \nframe=   96 fps=1.5 q=43.0 size=       1KiB time=00:00:00.79 bitrate=   5.7kbits/s speed=0.0128x elapsed=0:01:01.97    \nframe=   98 fps=1.6 q=43.0 size=       1KiB time=00:00:00.80 bitrate=   5.5kbits/s speed=0.0129x elapsed=0:01:02.49    \nframe=   99 fps=1.6 q=47.0 size=       1KiB time=00:00:00.81 bitrate=   5.5kbits/s speed=0.013x elapsed=0:01:03.00    \nframe=  100 fps=1.6 q=43.0 size=       1KiB time=00:00:00.82 bitrate=   5.4kbits/s speed=0.013x elapsed=0:01:03.52    \nframe=  101 fps=1.6 q=49.0 size=       1KiB time=00:00:00.83 bitrate=   5.4kbits/s speed=0.013x elapsed=0:01:04.04    \nframe=  102 fps=1.6 q=44.0 size=       1KiB time=00:00:00.84 bitrate=   5.3kbits/s speed=0.013x elapsed=0:01:04.55    \nframe=  102 fps=1.6 q=44.0 size=       1KiB time=00:00:00.84 bitrate=   5.3kbits/s speed=0.0129x elapsed=0:01:05.06    \nframe=  103 fps=1.6 q=48.0 size=       1KiB time=00:00:00.85 bitrate=   5.3kbits/s speed=0.013x elapsed=0:01:05.58    \nframe=  103 fps=1.6 q=48.0 size=       1KiB time=00:00:00.85 bitrate=   5.3kbits/s speed=0.0129x elapsed=0:01:06.09    \nframe=  104 fps=1.6 q=45.0 size=       1KiB time=00:00:00.85 bitrate=   5.2kbits/s speed=0.0129x elapsed=0:01:06.69    \nframe=  106 fps=1.6 q=44.0 size=       1KiB time=00:00:00.87 bitrate=   5.1kbits/s speed=0.013x elapsed=0:01:07.21    \nframe=  107 fps=1.6 q=48.0 size=       1KiB time=00:00:00.88 bitrate=   5.1kbits/s speed=0.013x elapsed=0:01:07.77    \nframe=  110 fps=1.6 q=45.0 size=       1KiB time=00:00:00.90 bitrate=   5.0kbits/s speed=0.0132x elapsed=0:01:08.29    \nframe=  111 fps=1.6 q=49.0 size=       1KiB time=00:00:00.91 bitrate=   4.9kbits/s speed=0.0133x elapsed=0:01:08.83    \nframe=  114 fps=1.6 q=44.0 size=       1KiB time=00:00:00.93 bitrate=   4.8kbits/s speed=0.0135x elapsed=0:01:09.36    \nframe=  115 fps=1.6 q=48.0 size=       1KiB time=00:00:00.95 bitrate=   4.7kbits/s speed=0.0136x elapsed=0:01:09.95    \nframe=  117 fps=1.7 q=49.0 size=       1KiB time=00:00:00.96 bitrate=   4.6kbits/s speed=0.0137x elapsed=0:01:10.47    \nframe=  119 fps=1.7 q=49.0 size=       1KiB time=00:00:00.98 bitrate=   4.6kbits/s speed=0.0138x elapsed=0:01:11.01    \nframe=  121 fps=1.7 q=38.0 size=       1KiB time=00:00:01.00 bitrate=   4.5kbits/s speed=0.014x elapsed=0:01:11.53    \nframe=  123 fps=1.7 q=49.0 size=       1KiB time=00:00:01.01 bitrate=   4.4kbits/s speed=0.0141x elapsed=0:01:12.06    \nframe=  124 fps=1.7 q=44.0 size=       1KiB time=00:00:01.02 bitrate=   4.4kbits/s speed=0.0141x elapsed=0:01:12.56    \nframe=  126 fps=1.7 q=45.0 size=       1KiB time=00:00:01.04 bitrate=   4.3kbits/s speed=0.0143x elapsed=0:01:13.08    \nframe=  126 fps=1.7 q=45.0 size=       1KiB time=00:00:01.04 bitrate=   4.3kbits/s speed=0.0142x elapsed=0:01:13.59    \nframe=  130 fps=1.8 q=45.0 size=       1KiB time=00:00:01.07 bitrate=   4.2kbits/s speed=0.0145x elapsed=0:01:14.12    \nframe=  132 fps=1.8 q=44.0 size=       1KiB time=00:00:01.09 bitrate=   4.1kbits/s speed=0.0146x elapsed=0:01:14.63    \nframe=  134 fps=1.8 q=44.0 size=       1KiB time=00:00:01.10 bitrate=   4.0kbits/s speed=0.0147x elapsed=0:01:15.15    \nframe=  135 fps=1.8 q=49.0 size=       1KiB time=00:00:01.11 bitrate=   4.0kbits/s speed=0.0148x elapsed=0:01:15.66    \nframe=  135 fps=1.8 q=49.0 size=       1KiB time=00:00:01.11 bitrate=   4.0kbits/s speed=0.0147x elapsed=0:01:16.18    \nframe=  138 fps=1.8 q=44.0 size=       1KiB time=00:00:01.14 bitrate=   3.9kbits/s speed=0.0149x elapsed=0:01:16.70    \nframe=  138 fps=1.8 q=44.0 size=       1KiB time=00:00:01.14 bitrate=   3.9kbits/s speed=0.0148x elapsed=0:01:17.22    \nframe=  141 fps=1.8 q=50.0 size=       1KiB time=00:00:01.16 bitrate=   3.8kbits/s speed=0.015x elapsed=0:01:17.74    \nframe=  144 fps=1.8 q=45.0 size=       1KiB time=00:00:01.19 bitrate=   3.8kbits/s speed=0.0152x elapsed=0:01:18.25    \nframe=  146 fps=1.9 q=44.0 size=       1KiB time=00:00:01.20 bitrate=   3.7kbits/s speed=0.0153x elapsed=0:01:18.77    \nframe=  147 fps=1.9 q=49.0 size=       1KiB time=00:00:01.21 bitrate=   3.7kbits/s speed=0.0153x elapsed=0:01:19.29    \nframe=  148 fps=1.9 q=44.0 size=       1KiB time=00:00:01.22 bitrate=   3.7kbits/s speed=0.0154x elapsed=0:01:19.80    \nframe=  150 fps=1.9 q=43.0 size=       1KiB time=00:00:01.24 bitrate=   3.6kbits/s speed=0.0155x elapsed=0:01:20.32    \nframe=  151 fps=1.9 q=48.0 size=       1KiB time=00:00:01.25 bitrate=   3.6kbits/s speed=0.0155x elapsed=0:01:20.83    \nframe=  155 fps=1.9 q=47.0 size=       1KiB time=00:00:01.28 bitrate=   3.5kbits/s speed=0.0158x elapsed=0:01:21.35    \nframe=  157 fps=1.9 q=49.0 size=       1KiB time=00:00:01.30 bitrate=   3.4kbits/s speed=0.0159x elapsed=0:01:21.86    \nframe=  159 fps=1.9 q=46.0 size=       1KiB time=00:00:01.31 bitrate=   3.4kbits/s speed=0.016x elapsed=0:01:22.38    \nframe=  161 fps=1.9 q=28.0 size=       1KiB time=00:00:01.33 bitrate=   3.4kbits/s speed=0.0161x elapsed=0:01:22.89    \nframe=  162 fps=1.9 q=41.0 size=       1KiB time=00:00:01.34 bitrate=   3.3kbits/s speed=0.0161x elapsed=0:01:23.41    \nframe=  164 fps=2.0 q=41.0 size=       1KiB time=00:00:01.35 bitrate=   3.3kbits/s speed=0.0162x elapsed=0:01:23.92    \nframe=  165 fps=2.0 q=48.0 size=       1KiB time=00:00:01.36 bitrate=   3.3kbits/s speed=0.0162x elapsed=0:01:24.44    \nframe=  166 fps=2.0 q=43.0 size=       1KiB time=00:00:01.37 bitrate=   3.3kbits/s speed=0.0162x elapsed=0:01:24.95    \nframe=  168 fps=2.0 q=44.0 size=       1KiB time=00:00:01.39 bitrate=   3.2kbits/s speed=0.0163x elapsed=0:01:25.47    \nframe=  171 fps=2.0 q=48.0 size=       1KiB time=00:00:01.41 bitrate=   3.2kbits/s speed=0.0165x elapsed=0:01:26.00    \nframe=  172 fps=2.0 q=43.0 size=       1KiB time=00:00:01.42 bitrate=   3.1kbits/s speed=0.0165x elapsed=0:01:26.52    \nframe=  173 fps=2.0 q=49.0 size=       1KiB time=00:00:01.43 bitrate=   3.1kbits/s speed=0.0165x elapsed=0:01:27.04    \nframe=  175 fps=2.0 q=48.0 size=       1KiB time=00:00:01.45 bitrate=   3.1kbits/s speed=0.0166x elapsed=0:01:27.56    \nframe=  176 fps=2.0 q=43.0 size=       1KiB time=00:00:01.45 bitrate=   3.1kbits/s speed=0.0166x elapsed=0:01:28.06    \nframe=  178 fps=2.0 q=44.0 size=       1KiB time=00:00:01.47 bitrate=   3.0kbits/s speed=0.0166x elapsed=0:01:28.58    \nframe=  180 fps=2.0 q=44.0 size=       1KiB time=00:00:01.49 bitrate=   3.0kbits/s speed=0.0167x elapsed=0:01:29.09    \nframe=  181 fps=2.0 q=49.0 size=       1KiB time=00:00:01.50 bitrate=   3.0kbits/s speed=0.0167x elapsed=0:01:29.62    \nframe=  183 fps=2.0 q=48.0 size=       1KiB time=00:00:01.51 bitrate=   3.0kbits/s speed=0.0168x elapsed=0:01:30.12    \nframe=  184 fps=2.0 q=44.0 size=       1KiB time=00:00:01.52 bitrate=   2.9kbits/s speed=0.0168x elapsed=0:01:30.65    \nframe=  185 fps=2.0 q=36.0 size=       1KiB time=00:00:01.53 bitrate=   2.9kbits/s speed=0.0168x elapsed=0:01:31.17    \nframe=  187 fps=2.0 q=48.0 size=       1KiB time=00:00:01.55 bitrate=   2.9kbits/s speed=0.0169x elapsed=0:01:31.67    \nframe=  190 fps=2.1 q=43.0 size=       1KiB time=00:00:01.57 bitrate=   2.8kbits/s speed=0.0171x elapsed=0:01:32.20    \nframe=  193 fps=2.1 q=28.0 size=       1KiB time=00:00:01.60 bitrate=   2.8kbits/s speed=0.0173x elapsed=0:01:32.70    \nframe=  195 fps=2.1 q=46.0 size=       1KiB time=00:00:01.61 bitrate=   2.8kbits/s speed=0.0173x elapsed=0:01:33.22    \nframe=  196 fps=2.1 q=42.0 size=       1KiB time=00:00:01.62 bitrate=   2.8kbits/s speed=0.0173x elapsed=0:01:33.73    \nframe=  198 fps=2.1 q=42.0 size=       1KiB time=00:00:01.64 bitrate=   2.7kbits/s speed=0.0174x elapsed=0:01:34.26    \nframe=  199 fps=2.1 q=46.0 size=       1KiB time=00:00:01.65 bitrate=   2.7kbits/s speed=0.0174x elapsed=0:01:34.77    \nframe=  201 fps=2.1 q=35.0 size=       1KiB time=00:00:01.66 bitrate=   2.7kbits/s speed=0.0175x elapsed=0:01:35.29    \nframe=  202 fps=2.1 q=43.0 size=       1KiB time=00:00:01.67 bitrate=   2.7kbits/s speed=0.0175x elapsed=0:01:35.80    \nframe=  204 fps=2.1 q=43.0 size=       1KiB time=00:00:01.69 bitrate=   2.6kbits/s speed=0.0176x elapsed=0:01:36.32    \nframe=  206 fps=2.1 q=44.0 size=       1KiB time=00:00:01.70 bitrate=   2.6kbits/s speed=0.0176x elapsed=0:01:36.84    \nframe=  209 fps=2.1 q=29.0 size=       1KiB time=00:00:01.73 bitrate=   2.6kbits/s speed=0.0178x elapsed=0:01:37.35    \nframe=  210 fps=2.1 q=45.0 size=       1KiB time=00:00:01.74 bitrate=   2.6kbits/s speed=0.0178x elapsed=0:01:37.87    \nframe=  212 fps=2.2 q=45.0 size=       1KiB time=00:00:01.75 bitrate=   2.5kbits/s speed=0.0179x elapsed=0:01:38.38    \nframe=  215 fps=2.2 q=49.0 size=       1KiB time=00:00:01.78 bitrate=   2.5kbits/s speed=0.018x elapsed=0:01:38.90    \nframe=  216 fps=2.2 q=46.0 size=       1KiB time=00:00:01.79 bitrate=   2.5kbits/s speed=0.018x elapsed=0:01:39.41    \nframe=  217 fps=2.2 q=35.0 size=       1KiB time=00:00:01.80 bitrate=   2.5kbits/s speed=0.018x elapsed=0:01:39.93    \nframe=  218 fps=2.2 q=45.0 size=       1KiB time=00:00:01.80 bitrate=   2.5kbits/s speed=0.018x elapsed=0:01:40.44    \nframe=  219 fps=2.2 q=50.0 size=       1KiB time=00:00:01.81 bitrate=   2.5kbits/s speed=0.018x elapsed=0:01:40.96    \nframe=  220 fps=2.2 q=45.0 size=       1KiB time=00:00:01.82 bitrate=   2.5kbits/s speed=0.018x elapsed=0:01:41.48    \nframe=  223 fps=2.2 q=50.0 size=       1KiB time=00:00:01.85 bitrate=   2.4kbits/s speed=0.0181x elapsed=0:01:41.98    \nframe=  224 fps=2.2 q=45.0 size=       1KiB time=00:00:01.85 bitrate=   2.4kbits/s speed=0.0181x elapsed=0:01:42.51    \nframe=  227 fps=2.2 q=50.0 size=       1KiB time=00:00:01.88 bitrate=   2.4kbits/s speed=0.0183x elapsed=0:01:43.03    \nframe=  228 fps=2.2 q=45.0 size=       1KiB time=00:00:01.89 bitrate=   2.4kbits/s speed=0.0183x elapsed=0:01:43.55    \nframe=  230 fps=2.2 q=46.0 size=       1KiB time=00:00:01.90 bitrate=   2.3kbits/s speed=0.0183x elapsed=0:01:44.07    \nframe=  231 fps=2.2 q=50.0 size=       1KiB time=00:00:01.91 bitrate=   2.3kbits/s speed=0.0183x elapsed=0:01:44.58    \nframe=  233 fps=2.2 q=35.0 size=       1KiB time=00:00:01.93 bitrate=   2.3kbits/s speed=0.0184x elapsed=0:01:45.10    \nframe=  235 fps=2.2 q=50.0 size=       1KiB time=00:00:01.95 bitrate=   2.3kbits/s speed=0.0185x elapsed=0:01:45.61    \nframe=  236 fps=2.2 q=45.0 size=       1KiB time=00:00:01.95 bitrate=   2.3kbits/s speed=0.0185x elapsed=0:01:46.13    \nframe=  239 fps=2.2 q=50.0 size=       1KiB time=00:00:01.98 bitrate=   2.3kbits/s speed=0.0186x elapsed=0:01:46.65    \nframe=  240 fps=2.2 q=45.0 size=       1KiB time=00:00:01.99 bitrate=   2.2kbits/s speed=0.0186x elapsed=0:01:47.16    \nframe=  241 fps=2.2 q=29.0 size=       1KiB time=00:00:02.00 bitrate=   2.2kbits/s speed=0.0186x elapsed=0:01:47.68    \nframe=  242 fps=2.2 q=45.0 size=       1KiB time=00:00:02.00 bitrate=   2.2kbits/s speed=0.0186x elapsed=0:01:48.20    \nframe=  244 fps=2.2 q=45.0 size=       1KiB time=00:00:02.02 bitrate=   2.2kbits/s speed=0.0186x elapsed=0:01:48.72    \nframe=  247 fps=2.3 q=49.0 size=       1KiB time=00:00:02.05 bitrate=   2.2kbits/s speed=0.0188x elapsed=0:01:49.24    \nframe=  249 fps=2.3 q=37.0 size=       1KiB time=00:00:02.06 bitrate=   2.2kbits/s speed=0.0188x elapsed=0:01:49.75    \nframe=  252 fps=2.3 q=44.0 size=       1KiB time=00:00:02.09 bitrate=   2.1kbits/s speed=0.019x elapsed=0:01:50.27    \nframe=  255 fps=2.3 q=47.0 size=       1KiB time=00:00:02.11 bitrate=   2.1kbits/s speed=0.0191x elapsed=0:01:50.79    \nframe=  258 fps=2.3 q=42.0 size=       1KiB time=00:00:02.14 bitrate=   2.1kbits/s speed=0.0192x elapsed=0:01:51.30    \nframe=  260 fps=2.3 q=42.0 size=       1KiB time=00:00:02.15 bitrate=   2.1kbits/s speed=0.0193x elapsed=0:01:51.82    \nframe=  263 fps=2.3 q=44.0 size=       1KiB time=00:00:02.18 bitrate=   2.1kbits/s speed=0.0194x elapsed=0:01:52.33    \nframe=  263 fps=2.3 q=44.0 size=       1KiB time=00:00:02.18 bitrate=   2.1kbits/s speed=0.0193x elapsed=0:01:52.84    \nframe=  265 fps=2.3 q=37.0 size=       1KiB time=00:00:02.20 bitrate=   2.0kbits/s speed=0.0194x elapsed=0:01:53.37    \nframe=  266 fps=2.3 q=39.0 size=       1KiB time=00:00:02.20 bitrate=   2.0kbits/s speed=0.0194x elapsed=0:01:53.88    \nframe=  266 fps=2.3 q=39.0 size=       1KiB time=00:00:02.20 bitrate=   2.0kbits/s speed=0.0193x elapsed=0:01:54.40    \nframe=  266 fps=2.3 q=39.0 size=       1KiB time=00:00:02.20 bitrate=   2.0kbits/s speed=0.0192x elapsed=0:01:54.90    \nframe=  267 fps=2.3 q=45.0 size=       1KiB time=00:00:02.21 bitrate=   2.0kbits/s speed=0.0192x elapsed=0:01:55.43    \nframe=  268 fps=2.3 q=41.0 size=       1KiB time=00:00:02.22 bitrate=   2.0kbits/s speed=0.0192x elapsed=0:01:55.94    \nframe=  270 fps=2.3 q=44.0 size=       1KiB time=00:00:02.24 bitrate=   2.0kbits/s speed=0.0192x elapsed=0:01:56.46    \nframe=  272 fps=2.3 q=45.0 size=       1KiB time=00:00:02.25 bitrate=   2.0kbits/s speed=0.0193x elapsed=0:01:56.97    \nframe=  272 fps=2.3 q=45.0 size=       1KiB time=00:00:02.25 bitrate=   2.0kbits/s speed=0.0192x elapsed=0:01:57.49    \nframe=  274 fps=2.3 q=45.0 size=       1KiB time=00:00:02.27 bitrate=   2.0kbits/s speed=0.0193x elapsed=0:01:58.01    \nframe=  275 fps=2.3 q=48.0 size=       1KiB time=00:00:02.28 bitrate=   2.0kbits/s speed=0.0193x elapsed=0:01:58.52    \nframe=  276 fps=2.3 q=45.0 size=       1KiB time=00:00:02.29 bitrate=   2.0kbits/s speed=0.0193x elapsed=0:01:59.04    \nframe=  277 fps=2.3 q=48.0 size=       1KiB time=00:00:02.30 bitrate=   1.9kbits/s speed=0.0192x elapsed=0:01:59.55    \nframe=  278 fps=2.3 q=46.0 size=       1KiB time=00:00:02.30 bitrate=   1.9kbits/s speed=0.0192x elapsed=0:02:00.07    \nframe=  281 fps=2.3 q=37.0 size=       1KiB time=00:00:02.33 bitrate=   1.9kbits/s speed=0.0194x elapsed=0:02:00.57    \nframe=  282 fps=2.3 q=46.0 size=       1KiB time=00:00:02.34 bitrate=   1.9kbits/s speed=0.0193x elapsed=0:02:01.10    \nframe=  283 fps=2.3 q=50.0 size=       1KiB time=00:00:02.35 bitrate=   1.9kbits/s speed=0.0193x elapsed=0:02:01.62    \nframe=  285 fps=2.3 q=50.0 size=       1KiB time=00:00:02.36 bitrate=   1.9kbits/s speed=0.0194x elapsed=0:02:02.12    \nframe=  287 fps=2.3 q=50.0 size=       1KiB time=00:00:02.38 bitrate=   1.9kbits/s speed=0.0194x elapsed=0:02:02.64    \nframe=  289 fps=2.3 q=32.0 size=       1KiB time=00:00:02.40 bitrate=   1.9kbits/s speed=0.0195x elapsed=0:02:03.16    \nframe=  291 fps=2.4 q=52.0 size=       1KiB time=00:00:02.41 bitrate=   1.9kbits/s speed=0.0195x elapsed=0:02:03.67    \nframe=  293 fps=2.4 q=52.0 size=       1KiB time=00:00:02.43 bitrate=   1.8kbits/s speed=0.0196x elapsed=0:02:04.19    \nframe=  296 fps=2.4 q=46.0 size=       1KiB time=00:00:02.45 bitrate=   1.8kbits/s speed=0.0197x elapsed=0:02:04.71    \nframe=  297 fps=2.4 q=37.0 size=       1KiB time=00:00:02.46 bitrate=   1.8kbits/s speed=0.0197x elapsed=0:02:05.22    \nframe=  299 fps=2.4 q=50.0 size=       1KiB time=00:00:02.48 bitrate=   1.8kbits/s speed=0.0198x elapsed=0:02:05.73    \nframe=  301 fps=2.4 q=51.0 size=       1KiB time=00:00:02.50 bitrate=   1.8kbits/s speed=0.0198x elapsed=0:02:06.26    \nframe=  304 fps=2.4 q=41.0 size=       1KiB time=00:00:02.52 bitrate=   1.8kbits/s speed=0.0199x elapsed=0:02:06.77    \nframe=  306 fps=2.4 q=45.0 size=       1KiB time=00:00:02.54 bitrate=   1.8kbits/s speed=0.02x elapsed=0:02:07.29    \nframe=  308 fps=2.4 q=45.0 size=       1KiB time=00:00:02.55 bitrate=   1.8kbits/s speed=0.02x elapsed=0:02:07.80    \nframe=  310 fps=2.4 q=44.0 size=       1KiB time=00:00:02.57 bitrate=   1.7kbits/s speed=0.0201x elapsed=0:02:08.32    \nframe=  311 fps=2.4 q=47.0 size=       1KiB time=00:00:02.58 bitrate=   1.7kbits/s speed=0.0201x elapsed=0:02:08.82    \nframe=  312 fps=2.4 q=44.0 size=       1KiB time=00:00:02.59 bitrate=   1.7kbits/s speed=0.02x elapsed=0:02:09.35    \nframe=  314 fps=2.4 q=44.0 size=       1KiB time=00:00:02.60 bitrate=   1.7kbits/s speed=0.0201x elapsed=0:02:09.87    \nframe=  314 fps=2.4 q=44.0 size=       1KiB time=00:00:02.60 bitrate=   1.7kbits/s speed=0.02x elapsed=0:02:10.38    \nframe=  317 fps=2.4 q=50.0 size=       1KiB time=00:00:02.63 bitrate=   1.7kbits/s speed=0.0201x elapsed=0:02:10.90    \nframe=  318 fps=2.4 q=45.0 size=       1KiB time=00:00:02.64 bitrate=   1.7kbits/s speed=0.0201x elapsed=0:02:11.40    \nframe=  321 fps=2.4 q=30.0 size=       1KiB time=00:00:02.66 bitrate=   1.7kbits/s speed=0.0202x elapsed=0:02:11.93    \nframe=  323 fps=2.4 q=48.0 size=       1KiB time=00:00:02.68 bitrate=   1.7kbits/s speed=0.0203x elapsed=0:02:12.44    \nframe=  325 fps=2.4 q=50.0 size=       1KiB time=00:00:02.70 bitrate=   1.7kbits/s speed=0.0203x elapsed=0:02:12.96    \nframe=  326 fps=2.4 q=45.0 size=       1KiB time=00:00:02.70 bitrate=   1.7kbits/s speed=0.0203x elapsed=0:02:13.47    \nframe=  327 fps=2.4 q=49.0 size=       1KiB time=00:00:02.71 bitrate=   1.6kbits/s speed=0.0203x elapsed=0:02:13.99    \nframe=  329 fps=2.4 q=37.0 size=       1KiB time=00:00:02.73 bitrate=   1.6kbits/s speed=0.0203x elapsed=0:02:14.50    \nframe=  330 fps=2.4 q=45.0 size=       1KiB time=00:00:02.74 bitrate=   1.6kbits/s speed=0.0203x elapsed=0:02:15.02    \nframe=  334 fps=2.5 q=45.0 size=       1KiB time=00:00:02.77 bitrate=   1.6kbits/s speed=0.0205x elapsed=0:02:15.53    \nframe=  336 fps=2.5 q=45.0 size=       1KiB time=00:00:02.79 bitrate=   1.6kbits/s speed=0.0205x elapsed=0:02:16.05    \nframe=  338 fps=2.5 q=45.0 size=       1KiB time=00:00:02.80 bitrate=   1.6kbits/s speed=0.0206x elapsed=0:02:16.57    \nframe=  339 fps=2.5 q=48.0 size=       1KiB time=00:00:02.81 bitrate=   1.6kbits/s speed=0.0205x elapsed=0:02:17.09    \nframe=  341 fps=2.5 q=50.0 size=       1KiB time=00:00:02.83 bitrate=   1.6kbits/s speed=0.0206x elapsed=0:02:17.59    \nframe=  344 fps=2.5 q=45.0 size=       1KiB time=00:00:02.85 bitrate=   1.6kbits/s speed=0.0207x elapsed=0:02:18.11    \nframe=  345 fps=2.5 q=37.0 size=       1KiB time=00:00:02.86 bitrate=   1.6kbits/s speed=0.0207x elapsed=0:02:18.62    \nframe=  347 fps=2.5 q=48.0 size=       1KiB time=00:00:02.88 bitrate=   1.6kbits/s speed=0.0207x elapsed=0:02:19.14    \nframe=  351 fps=2.5 q=47.0 size=       1KiB time=00:00:02.91 bitrate=   1.5kbits/s speed=0.0209x elapsed=0:02:19.66    \nframe=  352 fps=2.5 q=44.0 size=       1KiB time=00:00:02.92 bitrate=   1.5kbits/s speed=0.0209x elapsed=0:02:20.17    \nframe=  355 fps=2.5 q=49.0 size=       1KiB time=00:00:02.95 bitrate=   1.5kbits/s speed=0.021x elapsed=0:02:20.70    \nframe=  357 fps=2.5 q=51.0 size=       1KiB time=00:00:02.96 bitrate=   1.5kbits/s speed=0.021x elapsed=0:02:21.20    \nframe=  358 fps=2.5 q=45.0 size=       1KiB time=00:00:02.97 bitrate=   1.5kbits/s speed=0.021x elapsed=0:02:21.72    \nframe=  359 fps=2.5 q=49.0 size=       1KiB time=00:00:02.98 bitrate=   1.5kbits/s speed=0.021x elapsed=0:02:22.25    \nframe=  362 fps=2.5 q=46.0 size=       1KiB time=00:00:03.00 bitrate=   1.5kbits/s speed=0.0211x elapsed=0:02:22.75    \nframe=  364 fps=2.5 q=46.0 size=       1KiB time=00:00:03.02 bitrate=   1.5kbits/s speed=0.0211x elapsed=0:02:23.27    \nframe=  366 fps=2.5 q=45.0 size=       1KiB time=00:00:03.04 bitrate=   1.5kbits/s speed=0.0212x elapsed=0:02:23.78    \nframe=  367 fps=2.5 q=49.0 size=       1KiB time=00:00:03.05 bitrate=   1.5kbits/s speed=0.0211x elapsed=0:02:24.30    \nframe=  369 fps=2.5 q=30.0 size=       1KiB time=00:00:03.06 bitrate=   1.5kbits/s speed=0.0212x elapsed=0:02:24.81    \nframe=  371 fps=2.6 q=48.0 size=       1KiB time=00:00:03.08 bitrate=   1.5kbits/s speed=0.0212x elapsed=0:02:25.33    \nframe=  372 fps=2.6 q=45.0 size=       1KiB time=00:00:03.09 bitrate=   1.4kbits/s speed=0.0212x elapsed=0:02:25.85    \nframe=  374 fps=2.6 q=45.0 size=       1KiB time=00:00:03.10 bitrate=   1.4kbits/s speed=0.0212x elapsed=0:02:26.36    \nframe=  376 fps=2.6 q=41.0 size=       1KiB time=00:00:03.12 bitrate=   1.4kbits/s speed=0.0213x elapsed=0:02:26.88    \nframe=  376 fps=2.6 q=41.0 size=       1KiB time=00:00:03.12 bitrate=   1.4kbits/s speed=0.0212x elapsed=0:02:27.40    \nframe=  378 fps=2.6 q=45.0 size=       1KiB time=00:00:03.14 bitrate=   1.4kbits/s speed=0.0212x elapsed=0:02:27.90    \nframe=  382 fps=2.6 q=45.0 size=       1KiB time=00:00:03.17 bitrate=   1.4kbits/s speed=0.0214x elapsed=0:02:28.43    \nframe=  382 fps=2.6 q=45.0 size=       1KiB time=00:00:03.17 bitrate=   1.4kbits/s speed=0.0213x elapsed=0:02:28.95    \nframe=  385 fps=2.6 q=31.0 size=       1KiB time=00:00:03.20 bitrate=   1.4kbits/s speed=0.0214x elapsed=0:02:29.45    \nframe=  387 fps=2.6 q=50.0 size=       1KiB time=00:00:03.21 bitrate=   1.4kbits/s speed=0.0214x elapsed=0:02:29.97    \nframe=  389 fps=2.6 q=51.0 size=       1KiB time=00:00:03.23 bitrate=   1.4kbits/s speed=0.0215x elapsed=0:02:30.50    \nframe=  390 fps=2.6 q=47.0 size=       1KiB time=00:00:03.24 bitrate=   1.4kbits/s speed=0.0215x elapsed=0:02:31.00    \nframe=  392 fps=2.6 q=47.0 size=       1KiB time=00:00:03.25 bitrate=   1.4kbits/s speed=0.0215x elapsed=0:02:31.52    \nframe=  393 fps=2.6 q=36.0 size=       1KiB time=00:00:03.26 bitrate=   1.4kbits/s speed=0.0215x elapsed=0:02:32.03    \nframe=  395 fps=2.6 q=50.0 size=       1KiB time=00:00:03.28 bitrate=   1.4kbits/s speed=0.0215x elapsed=0:02:32.55    \nframe=  400 fps=2.6 q=48.0 size=       1KiB time=00:00:03.32 bitrate=   1.3kbits/s speed=0.0217x elapsed=0:02:33.07    \nframe=  403 fps=2.6 q=51.0 size=       1KiB time=00:00:03.35 bitrate=   1.3kbits/s speed=0.0218x elapsed=0:02:33.59    \nframe=  404 fps=2.6 q=48.0 size=       1KiB time=00:00:03.35 bitrate=   1.3kbits/s speed=0.0218x elapsed=0:02:34.11    \nframe=  406 fps=2.6 q=48.0 size=       1KiB time=00:00:03.37 bitrate=   1.3kbits/s speed=0.0218x elapsed=0:02:34.63    \nframe=  408 fps=2.6 q=48.0 size=       1KiB time=00:00:03.39 bitrate=   1.3kbits/s speed=0.0219x elapsed=0:02:35.15    \nframe=  410 fps=2.6 q=48.0 size=       1KiB time=00:00:03.40 bitrate=   1.3kbits/s speed=0.0219x elapsed=0:02:35.66    \nframe=  411 fps=2.6 q=51.0 size=       1KiB time=00:00:03.41 bitrate=   1.3kbits/s speed=0.0219x elapsed=0:02:36.17    \nframe=  413 fps=2.6 q=52.0 size=       1KiB time=00:00:03.43 bitrate=   1.3kbits/s speed=0.0219x elapsed=0:02:36.69    \nframe=  415 fps=2.6 q=50.0 size=       1KiB time=00:00:03.45 bitrate=   1.3kbits/s speed=0.0219x elapsed=0:02:37.21    \nframe=  416 fps=2.6 q=47.0 size=       1KiB time=00:00:03.45 bitrate=   1.3kbits/s speed=0.0219x elapsed=0:02:37.72    \nframe=  417 fps=2.6 q=30.0 size=       1KiB time=00:00:03.46 bitrate=   1.3kbits/s speed=0.0219x elapsed=0:02:38.24    \nframe=  417 fps=2.6 q=30.0 size=       1KiB time=00:00:03.46 bitrate=   1.3kbits/s speed=0.0218x elapsed=0:02:38.76    \nframe=  420 fps=2.6 q=46.0 size=       1KiB time=00:00:03.49 bitrate=   1.3kbits/s speed=0.0219x elapsed=0:02:39.27    \nframe=  421 fps=2.6 q=50.0 size=       1KiB time=00:00:03.50 bitrate=   1.3kbits/s speed=0.0219x elapsed=0:02:39.79    \nframe=  422 fps=2.6 q=47.0 size=       1KiB time=00:00:03.50 bitrate=   1.3kbits/s speed=0.0219x elapsed=0:02:40.29    \nframe=  423 fps=2.6 q=49.0 size=       1KiB time=00:00:03.51 bitrate=   1.3kbits/s speed=0.0219x elapsed=0:02:40.82    \nframe=  426 fps=2.6 q=47.0 size=       1KiB time=00:00:03.54 bitrate=   1.3kbits/s speed=0.022x elapsed=0:02:41.34    \nframe=  427 fps=2.6 q=49.0 size=       1KiB time=00:00:03.55 bitrate=   1.3kbits/s speed=0.0219x elapsed=0:02:41.85    \nframe=  429 fps=2.6 q=50.0 size=       1KiB time=00:00:03.56 bitrate=   1.3kbits/s speed=0.022x elapsed=0:02:42.36    \nframe=  432 fps=2.7 q=46.0 size=       1KiB time=00:00:03.59 bitrate=   1.2kbits/s speed=0.0221x elapsed=0:02:42.88    \nframe=  433 fps=2.7 q=32.0 size=       1KiB time=00:00:03.60 bitrate=   1.2kbits/s speed=0.022x elapsed=0:02:43.39    \nframe=  435 fps=2.7 q=49.0 size=       1KiB time=00:00:03.61 bitrate=   1.2kbits/s speed=0.0221x elapsed=0:02:43.91    \nframe=  437 fps=2.7 q=50.0 size=       1KiB time=00:00:03.63 bitrate=   1.2kbits/s speed=0.0221x elapsed=0:02:44.42    \nframe=  439 fps=2.7 q=49.0 size=       1KiB time=00:00:03.65 bitrate=   1.2kbits/s speed=0.0221x elapsed=0:02:44.95    \nframe=  439 fps=2.7 q=49.0 size=       1KiB time=00:00:03.65 bitrate=   1.2kbits/s speed=0.0221x elapsed=0:02:45.46    \nframe=  442 fps=2.7 q=47.0 size=       1KiB time=00:00:03.67 bitrate=   1.2kbits/s speed=0.0221x elapsed=0:02:45.97    \nframe=  442 fps=2.7 q=47.0 size=       1KiB time=00:00:03.67 bitrate=   1.2kbits/s speed=0.0221x elapsed=0:02:46.49    \nframe=  445 fps=2.7 q=51.0 size=       1KiB time=00:00:03.70 bitrate=   1.2kbits/s speed=0.0222x elapsed=0:02:47.00    \nframe=  447 fps=2.7 q=50.0 size=       1KiB time=00:00:03.71 bitrate=   1.2kbits/s speed=0.0222x elapsed=0:02:47.52    \nframe=  449 fps=2.7 q=32.0 size=       1KiB time=00:00:03.73 bitrate=   1.2kbits/s speed=0.0222x elapsed=0:02:48.03    \nframe=  450 fps=2.7 q=48.0 size=       1KiB time=00:00:03.74 bitrate=   1.2kbits/s speed=0.0222x elapsed=0:02:48.55    \nframe=  452 fps=2.7 q=48.0 size=       1KiB time=00:00:03.75 bitrate=   1.2kbits/s speed=0.0222x elapsed=0:02:49.06    \nframe=  453 fps=2.7 q=52.0 size=       1KiB time=00:00:03.76 bitrate=   1.2kbits/s speed=0.0222x elapsed=0:02:49.57    \nframe=  453 fps=2.7 q=52.0 size=       1KiB time=00:00:03.76 bitrate=   1.2kbits/s speed=0.0221x elapsed=0:02:50.09    \nframe=  455 fps=2.7 q=51.0 size=       1KiB time=00:00:03.78 bitrate=   1.2kbits/s speed=0.0222x elapsed=0:02:50.61    \nframe=  457 fps=2.7 q=37.0 size=       1KiB time=00:00:03.80 bitrate=   1.2kbits/s speed=0.0222x elapsed=0:02:51.13    \nframe=  460 fps=2.7 q=47.0 size=       1KiB time=00:00:03.82 bitrate=   1.2kbits/s speed=0.0223x elapsed=0:02:51.66    \nframe=  463 fps=2.7 q=50.0 size=       1KiB time=00:00:03.84 bitrate=   1.2kbits/s speed=0.0223x elapsed=0:02:52.22    \nframe=  465 fps=2.7 q=30.0 size=       1KiB time=00:00:03.86 bitrate=   1.2kbits/s speed=0.0224x elapsed=0:02:52.75    \nframe=  466 fps=2.7 q=46.0 size=       1KiB time=00:00:03.87 bitrate=   1.2kbits/s speed=0.0224x elapsed=0:02:53.26    \nframe=  468 fps=2.7 q=46.0 size=       1KiB time=00:00:03.89 bitrate=   1.2kbits/s speed=0.0224x elapsed=0:02:53.80    \nframe=  470 fps=2.7 q=46.0 size=       1KiB time=00:00:03.90 bitrate=   1.1kbits/s speed=0.0224x elapsed=0:02:54.34    \nframe=  470 fps=2.7 q=46.0 size=       1KiB time=00:00:03.90 bitrate=   1.1kbits/s speed=0.0224x elapsed=0:02:54.86    \nframe=  472 fps=2.7 q=46.0 size=       1KiB time=00:00:03.92 bitrate=   1.1kbits/s speed=0.0224x elapsed=0:02:55.38    \nframe=  474 fps=2.7 q=45.0 size=       1KiB time=00:00:03.94 bitrate=   1.1kbits/s speed=0.0224x elapsed=0:02:55.91    \nframe=  476 fps=2.7 q=45.0 size=       1KiB time=00:00:03.95 bitrate=   1.1kbits/s speed=0.0224x elapsed=0:02:56.47    \nframe=  476 fps=2.7 q=45.0 size=       1KiB time=00:00:03.95 bitrate=   1.1kbits/s speed=0.0224x elapsed=0:02:57.01    \nframe=  480 fps=2.7 q=46.0 size=       1KiB time=00:00:03.99 bitrate=   1.1kbits/s speed=0.0225x elapsed=0:02:57.58    \nframe=  481 fps=2.7 q=31.0 size=       1KiB time=00:00:04.00 bitrate=   1.1kbits/s speed=0.0225x elapsed=0:02:58.10    \nframe=  483 fps=2.7 q=48.0 size=       1KiB time=00:00:04.01 bitrate=   1.1kbits/s speed=0.0225x elapsed=0:02:58.69    \nframe=  485 fps=2.7 q=50.0 size=       1KiB time=00:00:04.03 bitrate=   1.1kbits/s speed=0.0225x elapsed=0:02:59.29    \nframe=  486 fps=2.7 q=46.0 size=       1KiB time=00:00:04.04 bitrate=   1.1kbits/s speed=0.0225x elapsed=0:02:59.84    \nframe=  489 fps=2.7 q=37.0 size=       1KiB time=00:00:04.06 bitrate=   1.1kbits/s speed=0.0225x elapsed=0:03:00.36    \nframe=  490 fps=2.7 q=46.0 size=       1KiB time=00:00:04.07 bitrate=   1.1kbits/s speed=0.0225x elapsed=0:03:00.88    \nframe=  492 fps=2.7 q=46.0 size=       1KiB time=00:00:04.09 bitrate=   1.1kbits/s speed=0.0226x elapsed=0:03:01.39    \nframe=  495 fps=2.7 q=49.0 size=       1KiB time=00:00:04.11 bitrate=   1.1kbits/s speed=0.0226x elapsed=0:03:01.91    \nframe=  497 fps=2.7 q=31.0 size=       1KiB time=00:00:04.13 bitrate=   1.1kbits/s speed=0.0227x elapsed=0:03:02.43    \nframe=  500 fps=2.7 q=46.0 size=       1KiB time=00:00:04.15 bitrate=   1.1kbits/s speed=0.0227x elapsed=0:03:02.97    \nframe=  505 fps=2.8 q=37.0 size=       1KiB time=00:00:04.20 bitrate=   1.1kbits/s speed=0.0229x elapsed=0:03:03.54    \nframe=  505 fps=2.7 q=37.0 size=       1KiB time=00:00:04.20 bitrate=   1.1kbits/s speed=0.0228x elapsed=0:03:04.07    \nframe=  509 fps=2.8 q=51.0 size=       1KiB time=00:00:04.23 bitrate=   1.1kbits/s speed=0.0229x elapsed=0:03:04.60    \nframe=  509 fps=2.7 q=51.0 size=       1KiB time=00:00:04.23 bitrate=   1.1kbits/s speed=0.0229x elapsed=0:03:05.15    \nframe=  513 fps=2.8 q=31.0 size=       1KiB time=00:00:04.26 bitrate=   1.0kbits/s speed=0.023x elapsed=0:03:05.73    \nframe=  515 fps=2.8 q=49.0 size=       1KiB time=00:00:04.28 bitrate=   1.0kbits/s speed=0.023x elapsed=0:03:06.26    \nframe=  517 fps=2.8 q=51.0 size=       1KiB time=00:00:04.30 bitrate=   1.0kbits/s speed=0.023x elapsed=0:03:06.78    \nframe=  519 fps=2.8 q=49.0 size=       1KiB time=00:00:04.31 bitrate=   1.0kbits/s speed=0.023x elapsed=0:03:07.31    \nframe=  521 fps=2.8 q=37.0 size=       1KiB time=00:00:04.33 bitrate=   1.0kbits/s speed=0.0231x elapsed=0:03:07.83    \nframe=  525 fps=2.8 q=50.0 size=       1KiB time=00:00:04.36 bitrate=   1.0kbits/s speed=0.0232x elapsed=0:03:08.45    \nframe=  527 fps=2.8 q=48.0 size=       1KiB time=00:00:04.38 bitrate=   1.0kbits/s speed=0.0232x elapsed=0:03:08.99    \nframe=  529 fps=2.8 q=30.0 size=       1KiB time=00:00:04.40 bitrate=   1.0kbits/s speed=0.0232x elapsed=0:03:09.53    \nframe=  529 fps=2.8 q=30.0 size=       1KiB time=00:00:04.40 bitrate=   1.0kbits/s speed=0.0231x elapsed=0:03:10.12    \nframe=  531 fps=2.8 q=48.0 size=       1KiB time=00:00:04.41 bitrate=   1.0kbits/s speed=0.0232x elapsed=0:03:10.73    \nframe=  533 fps=2.8 q=50.0 size=       1KiB time=00:00:04.43 bitrate=   1.0kbits/s speed=0.0232x elapsed=0:03:11.26    \nframe=  537 fps=2.8 q=37.0 size=       1KiB time=00:00:04.46 bitrate=   1.0kbits/s speed=0.0233x elapsed=0:03:11.80    \nframe=  537 fps=2.8 q=37.0 size=       1KiB time=00:00:04.46 bitrate=   1.0kbits/s speed=0.0232x elapsed=0:03:12.31    \nframe=  537 fps=2.8 q=37.0 size=       1KiB time=00:00:04.46 bitrate=   1.0kbits/s speed=0.0232x elapsed=0:03:12.84    \nframe=  541 fps=2.8 q=50.0 size=       1KiB time=00:00:04.50 bitrate=   1.0kbits/s speed=0.0233x elapsed=0:03:13.36    \nframe=  543 fps=2.8 q=47.0 size=       1KiB time=00:00:04.51 bitrate=   1.0kbits/s speed=0.0233x elapsed=0:03:13.88    \nframe=  545 fps=2.8 q=30.0 size=       1KiB time=00:00:04.53 bitrate=   1.0kbits/s speed=0.0233x elapsed=0:03:14.41    \nframe=  547 fps=2.8 q=46.0 size=       1KiB time=00:00:04.55 bitrate=   1.0kbits/s speed=0.0233x elapsed=0:03:14.95    \nframe=  549 fps=2.8 q=49.0 size=       1KiB time=00:00:04.56 bitrate=   1.0kbits/s speed=0.0234x elapsed=0:03:15.48    \nframe=  551 fps=2.8 q=46.0 size=       1KiB time=00:00:04.58 bitrate=   1.0kbits/s speed=0.0234x elapsed=0:03:16.01    \nframe=  553 fps=2.8 q=38.0 size=       1KiB time=00:00:04.60 bitrate=   1.0kbits/s speed=0.0234x elapsed=0:03:16.54    \nframe=  553 fps=2.8 q=38.0 size=       1KiB time=00:00:04.60 bitrate=   1.0kbits/s speed=0.0233x elapsed=0:03:17.09    \nframe=  555 fps=2.8 q=47.0 size=       1KiB time=00:00:04.60 bitrate=   1.0kbits/s speed=0.0233x elapsed=0:03:17.61    \nframe=  557 fps=2.8 q=49.0 size=       1KiB time=00:00:04.63 bitrate=   1.0kbits/s speed=0.0234x elapsed=0:03:18.16    \nframe=  557 fps=2.8 q=49.0 size=       1KiB time=00:00:04.63 bitrate=   1.0kbits/s speed=0.0233x elapsed=0:03:18.78    \nframe=  561 fps=2.8 q=32.0 size=       1KiB time=00:00:04.66 bitrate=   1.0kbits/s speed=0.0234x elapsed=0:03:19.33    \nframe=  563 fps=2.8 q=47.0 size=       1KiB time=00:00:04.68 bitrate=   1.0kbits/s speed=0.0234x elapsed=0:03:19.87    \nframe=  565 fps=2.8 q=49.0 size=       1KiB time=00:00:04.70 bitrate=   1.0kbits/s speed=0.0235x elapsed=0:03:20.40    \nframe=  567 fps=2.8 q=47.0 size=       1KiB time=00:00:04.71 bitrate=   0.9kbits/s speed=0.0235x elapsed=0:03:20.96    \nframe=  569 fps=2.8 q=37.0 size=       1KiB time=00:00:04.73 bitrate=   0.9kbits/s speed=0.0235x elapsed=0:03:21.48    \nframe=  569 fps=2.8 q=37.0 size=       1KiB time=00:00:04.73 bitrate=   0.9kbits/s speed=0.0234x elapsed=0:03:22.06    \nframe=  573 fps=2.8 q=49.0 size=       1KiB time=00:00:04.75 bitrate=   0.9kbits/s speed=0.0234x elapsed=0:03:22.57    \nframe=  573 fps=2.8 q=49.0 size=       1KiB time=00:00:04.76 bitrate=   0.9kbits/s speed=0.0235x elapsed=0:03:23.12    \nframe=  575 fps=2.8 q=47.0 size=       1KiB time=00:00:04.78 bitrate=   0.9kbits/s speed=0.0235x elapsed=0:03:23.65    \nframe=  577 fps=2.8 q=31.0 size=       1KiB time=00:00:04.80 bitrate=   0.9kbits/s speed=0.0235x elapsed=0:03:24.19    \nframe=  581 fps=2.8 q=49.0 size=       1KiB time=00:00:04.83 bitrate=   0.9kbits/s speed=0.0236x elapsed=0:03:24.82    \nframe=  581 fps=2.8 q=49.0 size=       1KiB time=00:00:04.83 bitrate=   0.9kbits/s speed=0.0235x elapsed=0:03:25.40    \nframe=  583 fps=2.8 q=46.0 size=       1KiB time=00:00:04.85 bitrate=   0.9kbits/s speed=0.0236x elapsed=0:03:25.92    \nframe=  585 fps=2.8 q=42.0 size=       1KiB time=00:00:04.86 bitrate=   0.9kbits/s speed=0.0236x elapsed=0:03:26.44    \nframe=  585 fps=2.8 q=42.0 size=       1KiB time=00:00:04.86 bitrate=   0.9kbits/s speed=0.0235x elapsed=0:03:26.95    \nframe=  587 fps=2.8 q=45.0 size=       1KiB time=00:00:04.86 bitrate=   0.9kbits/s speed=0.0234x elapsed=0:03:27.56    \nframe=  587 fps=2.8 q=45.0 size=       1KiB time=00:00:04.88 bitrate=   0.9kbits/s speed=0.0235x elapsed=0:03:28.22    \nframe=  589 fps=2.8 q=49.0 size=       1KiB time=00:00:04.90 bitrate=   0.9kbits/s speed=0.0235x elapsed=0:03:28.84    \nframe=  591 fps=2.8 q=45.0 size=       1KiB time=00:00:04.91 bitrate=   0.9kbits/s speed=0.0235x elapsed=0:03:29.41    \n[out#0/matroska @ 0000020ecc519100] video:1101KiB audio:0KiB subtitle:0KiB other streams:0KiB global headers:0KiB muxing overhead: 0.295785%\nframe=  600 fps=2.9 q=56.0 Lsize=    1104KiB time=00:00:04.99 bitrate=1811.8kbits/s speed=0.0238x elapsed=0:03:29.53    \n",
  "seconds": 210.7437286376953,
  "probe_out": {}
}